<?xml version="1.0" encoding="utf-8"?>
<!-- Generator: Adobe Illustrator 19.1.0, SVG Export Plug-In . SVG Version: 6.00 Build 0)  -->
<svg version="1.1" id="Layer_1" xmlns="http://www.w3.org/2000/svg" xmlns:xlink="http://www.w3.org/1999/xlink" x="0px" y="0px"
	 viewBox="0 0 64 64" enable-background="new 0 0 64 64" xml:space="preserve">
<g id="Unboxing">
	<path d="M54.9034882,22.2451725c-0.0606995-0.0825005-0.1295967-0.1340008-0.2453995-0.1655006
		c-0.2668991-0.0601997-17.8276978,4.4349003-18.0187988,4.5080013c-1,0.4306984-1.2494011,0.8209-4.6402912,9.6236
		c-0.5148087-1.3366013-3.191309-8.0018005-3.5136089-8.5762005c-0.2059994-0.3435993-0.4396-0.6019001-0.7443905-0.830101
		c-0.4854088-0.3414001-17.972908-4.733099-18.2514076-4.7413998c-0.3281994-0.0098-0.5760994,0.2335014-0.4580002,0.7954998
		c0,0,2.3572998,7.5031013,3.1557007,10.2488995c0.5707998,1.9999008-0.1789007,24.0240021,0.5137081,25.4336014
		c0.2783918,0.5409012,0.6849995,0.9826012,1.2364912,1.274601c0.4758005,0.2383003,16.8923988,4.1783981,17.1858997,4.2112007
		c0.5247993,0.0494995,1.3642998,0.0509949,1.8720016-0.0144043c0.3756981-0.0570984,16.6674995-3.973999,17.1620979-4.2493973
		c0.7715111-0.4524994,1.3277016-1.2691002,1.4249001-2.1927986c0.0086098-0.1048012,0.0121002-23.646801,0.0200005-23.6902008
		C51.6707878,33.5709724,51.9099998,32.7676735,52,32.4622726c0.5368881-1.7996006,2.9878883-9.7161999,2.9878883-9.7161999
		C55.0092888,22.5652733,55.005188,22.3979721,54.9034882,22.2451725z M12.0358906,25.8005733l-0.3583002-1.1469002
		l14.9187994,3.7852001c0.280201,0.2339993,3.0475006,7.2140007,3.1797009,7.5494995
		c0.1175995,0.3003006,0.2269993,0.6109009,0.3599091,0.9043007c-10.1420002-2.3348007-14.1664095-3.3813019-15.8257093-3.5592003
		C13.9914904,32.0544739,12.435791,27.0854721,12.0358906,25.8005733z M14.4171906,57.4857712
		c-0.0366001-0.1399002,0-16.5839005-0.0386-22.1709976c1.9584093,0.588398,6.4926996,1.5084,16.7028999,3.8470993
		c-0.2391987,1.9641991-0.0901985,7.4667015-0.0830002,22.8017998c-2.4022999-0.5625992-16.0944901-3.8623009-16.2643986-3.9973984
		C14.5722904,57.8296738,14.4646902,57.6546707,14.4171906,57.4857712z M49.1699982,58.0315742
		c-0.1301079,0.0727997-12.967907,3.1894989-16.1704063,3.8918991c0.008297-15.9429016,0.1806984-21.2397003-0.1067009-22.9896011
		l16.727108-3.6077995c-0.0352097,5.6058006,0.0120926,22.0659981-0.0849991,22.2849007
		C49.4577904,57.7773743,49.3281898,57.9386711,49.1699982,58.0315742z M51.9622879,25.8005733
		c-0.453289,1.4562988-1.9013977,6.0843983-2.256897,7.4610004l-15.7399025,3.3948975
		c0.0889015-0.221199,0.1702003-0.4477005,0.2564011-0.6679993c0.1322021-0.3353996,2.8995018-7.3128986,3.1796989-7.5495987
		l14.9190025-3.7852001L51.9622879,25.8005733z"/>
	<path d="M25.1635895,54.0772743c-5.9294987-0.9882011-6.9313984-1.4929008-7.1507988-0.1782036
		c-0.2175007,1.3049011,0.8598995,1.1571999,6.8216991,2.1508026c0.5433006,0.0905991,1.0599003-0.2763023,1.1508999-0.821701
		C26.0761909,54.6831741,25.7080898,54.1680717,25.1635895,54.0772743z"/>
	<path d="M21.9990902,11.7346725h5.5c0,9-0.5820904,10.1644993,0.763401,10.1644993
		c6.9056988,0,7.7635098,0.4971008,7.7635098-0.8355999v-9.3288994h5.9730873c0.4043007,0,0.769001-0.0791998,0.9238014-0.4526997
		c0.4140015-1.0003004-0.0844994-0.8753004-10.2168007-11.0076008c-1.0001984-1.0002-1.1976986-0.3397-11.4139977,9.8766003
		C20.6634903,10.7795725,21.1101913,11.7346725,21.9990902,11.7346725z M31.9990902,2.3131726l7.5859089,7.4215002h-4.0859108
		c-1.3333969,0-1,1-1,10h-5.4730892v-8.6710997c0-1.2938004-1.0135078-1.0822001-4.8494091-1.0822001L31.9990902,2.3131726z"/>
</g>
</svg>
